# xmcd CD database file
#
# Track frame offsets:
#	150
#	8737
#	21097
#	32252
#	44995
#	57707
#	71880
#	86845
#	98972
#	113815
#
# Disc length: 1636 seconds
#
# Revision: 1
# Processed by: cddbd v1.4PL0 Copyright (c) Steve Scherf et al.
# Submitted via: CDex 1.40Release
#
DISCID=8906620a
DTITLE=Várious - Festival Amigos da Música Sertaneja Vol I
DYEAR=1900
DGENRE=Country
TTITLE0=Rei do Gado  -  Luiz Schiavon , Nil Bernardes, Marcelo  Barbosa
TTITLE1=Só Dá Você Na Minha Vida  -  Rick
TTITLE2=Bailão de Peão  -  Maria da Paz, Nino
TTITLE3=Pode Ser Pra Valer  -  Noel Marques, Maracai
TTITLE4=Não Desligue o Rádio  -  Joel Marques, Xitãozinho
TTITLE5=Faz Uma Vez Comigo  -  César Augusto
TTITLE6=Você Vai Ver  -  Elias Muniz, Carlos Colla
TTITLE7=1,2,3  -  Paulo Debétio
TTITLE8=Diz pra Mim -  Nando Cordel
TTITLE9=Hoje Eu Topo O Que Vier  -  Gilberto, Gilmar, Waldemar de Freitas Assunção
EXTD=ID3G: 2
EXTT0=
EXTT1=
EXTT2=
EXTT3=
EXTT4=
EXTT5=
EXTT6=
EXTT7=
EXTT8=
EXTT9=
PLAYORDER=
